<?xml version="1.0" encoding="utf-8"?>
<!-- Generator: Adobe Illustrator 24.0.0, SVG Export Plug-In . SVG Version: 6.00 Build 0)  -->
<svg version="1.1" id="Capa_1" xmlns="http://www.w3.org/2000/svg" xmlns:xlink="http://www.w3.org/1999/xlink" x="0px" y="0px"
	 viewBox="0 0 489.3 489.3" style="enable-background:new 0 0 489.3 489.3;" xml:space="preserve">
<style type="text/css">
	.st0{fill:#CCCCCC;}
</style>
<g>
	<g>
		<path class="st0" d="M472.6,4.6H16.7c-6.7,0-12,5.4-12,12v218.6c0,6.7,5.4,12,12,12s12.1-5.4,12.1-12V28.7h431.9v431.8H252.8
			c-6.7,0-12.1,5.4-12.1,12.1c0,6.7,5.4,12.1,12.1,12.1h219.8c6.7,0,12.1-5.4,12.1-12.1V16.7C484.6,10,479.3,4.6,472.6,4.6z"/>
		<path class="st0" d="M4.7,472.5c0,6.7,5.4,12.1,12,12.1h167.2c6.7,0,12.1-5.4,12.1-12.1V305.4c0-6.7-5.4-12.1-12.1-12.1H16.7
			c-6.7,0-12,5.4-12,12.1L4.7,472.5L4.7,472.5L4.7,472.5z M28.7,317.4h143.2v143.1H28.7V317.4z"/>
		<path class="st0" d="M223.4,265.9c2.4,2.4,5.4,3.5,8.5,3.5s6.2-1.2,8.5-3.5l136-136.1v78.4c0,6.7,5.4,12.1,12.1,12.1
			c6.7,0,12.1-5.4,12.1-12.1V100.9c0-6.7-5.4-12.1-12.1-12.1H281.1c-6.7,0-12.1,5.4-12.1,12.1c0,6.7,5.4,12.1,12.1,12.1h78.4
			l-136.1,136C218.6,253.6,218.6,261.2,223.4,265.9z"/>
	</g>
</g>
</svg>
